<svg width="25" height="22" viewBox="0 0 25 22" fill="none" xmlns="http://www.w3.org/2000/svg">
<path d="M5.35562 21.2784C6.01283 21.2784 6.54559 20.7456 6.54559 20.0884C6.54559 19.4312 6.01283 18.8984 5.35562 18.8984C4.69842 18.8984 4.16565 19.4312 4.16565 20.0884C4.16565 20.7456 4.69842 21.2784 5.35562 21.2784Z" fill="#E56117"/>
<path d="M13.6837 21.2784C14.341 21.2784 14.8737 20.7456 14.8737 20.0884C14.8737 19.4312 14.341 18.8984 13.6837 18.8984C13.0265 18.8984 12.4938 19.4312 12.4938 20.0884C12.4938 20.7456 13.0265 21.2784 13.6837 21.2784Z" fill="#E56117"/>
<path d="M15.7969 9.11146C15.7133 9.00921 15.608 8.92686 15.4886 8.87039C15.3692 8.81391 15.2388 8.78473 15.1067 8.78496H3.78895L3.56099 7.49161C3.53669 7.35384 3.46461 7.22905 3.35743 7.13914C3.25026 7.04924 3.11482 6.99997 2.97493 7H0.594986C0.437186 7 0.285849 7.06269 0.174267 7.17427C0.0626858 7.28585 0 7.43719 0 7.59499C0 7.75279 0.0626858 7.90412 0.174267 8.0157C0.285849 8.12729 0.437186 8.18997 0.594986 8.18997H2.47589L4.17383 17.8131C4.19813 17.9509 4.27021 18.0757 4.37739 18.1656C4.48456 18.2555 4.62 18.3048 4.75989 18.3047H14.2797C14.4375 18.3047 14.5888 18.2421 14.7004 18.1305C14.812 18.0189 14.8747 17.8676 14.8747 17.7098C14.8747 17.552 14.812 17.4006 14.7004 17.289C14.5888 17.1775 14.4375 17.1148 14.2797 17.1148H5.25893L5.0492 15.9248H14.0357C14.2421 15.9245 14.442 15.853 14.6016 15.7223C14.7613 15.5916 14.8709 15.4097 14.9118 15.2075L15.9828 9.85259C16.0086 9.72299 16.0053 9.58928 15.9732 9.46112C15.941 9.33295 15.8808 9.21352 15.7969 9.11146Z" fill="#E56117"/>
<rect x="10.5" y="0.5" width="14" height="14" rx="7" fill="#FD4848" stroke="white"/>
<path d="M15.744 10L15.48 9.344L17.192 7.416C17.3093 7.28267 17.4347 7.13067 17.568 6.96C17.7067 6.78933 17.824 6.61333 17.92 6.432C18.016 6.25067 18.064 6.08267 18.064 5.928C18.064 5.672 17.9893 5.47467 17.84 5.336C17.6907 5.192 17.4853 5.12 17.224 5.12C16.9947 5.12 16.7707 5.22133 16.552 5.424C16.3333 5.62133 16.1733 5.88533 16.072 6.216L15.408 5.8C15.5413 5.336 15.7787 4.97333 16.12 4.712C16.4667 4.45067 16.8693 4.32 17.328 4.32C17.6427 4.32 17.9227 4.38667 18.168 4.52C18.4133 4.648 18.6053 4.82933 18.744 5.064C18.8827 5.29333 18.952 5.56 18.952 5.864C18.952 6.17333 18.8613 6.50133 18.68 6.848C18.504 7.18933 18.2133 7.58133 17.808 8.024L16.76 9.168H19.128V10H15.744Z" fill="white"/>
</svg>
