<?xml version="1.0" standalone="no"?>
<!DOCTYPE svg PUBLIC "-//W3C//DTD SVG 20010904//EN"
 "http://www.w3.org/TR/2001/REC-SVG-20010904/DTD/svg10.dtd">
<svg version="1.0" xmlns="http://www.w3.org/2000/svg"
 width="260.000000pt" height="260.000000pt" viewBox="0 0 260.000000 260.000000"
 preserveAspectRatio="xMidYMid meet">
<metadata>
Created by potrace 1.14, written by Peter Selinger 2001-2017
</metadata>
<g transform="translate(0.000000,260.000000) scale(0.100000,-0.100000)"
fill="#000000" stroke="none">
<path d="M1008 1893 c-28 -7 -21 -20 14 -27 51 -10 118 -88 172 -202 148 -304
179 -356 255 -427 76 -71 123 -92 211 -92 58 0 84 5 115 22 45 24 46 23 -50
38 -70 12 -141 53 -197 114 -52 56 -76 95 -207 327 -115 204 -205 275 -313
247z"/>
<path d="M730 1690 c-39 -39 -38 -114 2 -157 20 -22 29 -23 147 -23 l126 0 78
-287 c43 -158 83 -293 89 -300 9 -11 14 -8 29 16 38 62 97 78 157 41 18 -11
40 -36 49 -55 l17 -35 88 0 88 0 20 40 c46 91 172 92 210 1 15 -36 21 -38 44
-12 37 41 28 138 -15 161 -10 6 -138 10 -298 10 l-280 0 -11 38 c-5 20 -41
151 -79 290 -39 145 -76 261 -86 272 -17 18 -32 20 -187 20 -154 0 -170 -2
-188 -20z"/>
<path d="M1247 929 c-57 -44 -56 -153 0 -205 73 -68 172 32 141 143 -21 76
-87 105 -141 62z"/>
<path d="M1667 926 c-49 -45 -48 -147 3 -198 96 -96 209 94 114 193 -35 37
-80 39 -117 5z"/>
</g>
</svg>
