<svg width="50" height="50" viewBox="0 0 50 50" fill="none" xmlns="http://www.w3.org/2000/svg">
<rect opacity="0.1" width="50" height="50" rx="10" fill="#171FE5"/>
<path d="M24.9988 18.5334C21.4338 18.5334 18.5334 21.4338 18.5334 24.9988C18.5334 28.5638 21.4338 31.4642 24.9988 31.4642C28.5639 31.4642 31.4642 28.5639 31.4642 24.9988C31.4642 21.4338 28.5639 18.5334 24.9988 18.5334ZM25.4935 27.1783V27.8439H24.6481V27.2083C24.0485 27.1723 23.4668 27.0104 23.1071 26.7885L23.5628 25.7572C23.9585 25.9911 24.4862 26.141 24.9479 26.141C25.3496 26.141 25.4935 26.057 25.4935 25.9131C25.4935 25.3855 23.1731 25.8112 23.1731 24.2463C23.1731 23.5687 23.6647 22.9991 24.6481 22.8612V22.2076H25.4935V22.8492C25.9372 22.8912 26.3689 23.0051 26.7107 23.197L26.2849 24.2223C25.8712 24.0124 25.4815 23.9105 25.1157 23.9105C24.702 23.9105 24.5701 24.0304 24.5701 24.1743C24.5701 24.678 26.8906 24.2583 26.8906 25.8052C26.8906 26.4528 26.4229 27.0164 25.4935 27.1783Z" fill="#171FE5"/>
<path d="M35.9354 23.8074L34.6531 23.9491C34.8929 26.1182 34.3795 28.3355 33.2074 30.1927C32.019 32.0756 30.1995 33.5028 28.084 34.2114C27.0713 34.5506 26.0309 34.7131 25.0005 34.713C22.0261 34.7128 19.1395 33.3579 17.2741 30.9897H18.5513V29.6997H15.1021V33.3078H16.3921V31.9491C17.6222 33.4469 19.2525 34.6148 21.1034 35.3038C22.3541 35.7694 23.6735 36.0028 24.9912 36.0028C26.1772 36.0028 27.3619 35.8137 28.4937 35.4346C30.8903 34.6319 32.9517 33.0148 34.2982 30.8813C35.6257 28.7779 36.2071 26.2657 35.9354 23.8074Z" fill="#171FE5"/>
<path d="M16.7479 19.8908C17.9362 17.971 19.7718 16.518 21.9166 15.7995C24.0053 15.0999 26.2025 15.1221 28.271 15.864C29.8862 16.4433 31.3263 17.449 32.4248 18.7483L31.1954 18.7478L31.195 20.0379L34.6825 20.039V16.5922H33.3924V17.8953C32.1502 16.4337 30.5265 15.3024 28.7065 14.6496C26.3627 13.8091 23.8731 13.7837 21.5069 14.5763C19.0771 15.3902 16.9975 17.0365 15.651 19.2118C14.3221 21.3589 13.7675 23.9129 14.0892 26.4034L15.3686 26.2381C15.0847 24.0407 15.5746 21.7866 16.7479 19.8908Z" fill="#171FE5"/>
</svg>
