<svg width="22" height="23" viewBox="0 0 22 23" fill="none" xmlns="http://www.w3.org/2000/svg">
<path d="M10.9988 4.53345C7.43379 4.53345 4.53345 7.43383 4.53345 10.9988C4.53345 14.5638 7.43379 17.4642 10.9988 17.4642C14.5639 17.4642 17.4642 14.5639 17.4642 10.9988C17.4642 7.43379 14.5639 4.53345 10.9988 4.53345ZM11.4935 13.1783V13.8439H10.6481V13.2083C10.0485 13.1723 9.46684 13.0104 9.1071 12.7885L9.56279 11.7572C9.9585 11.9911 10.4862 12.141 10.9479 12.141C11.3496 12.141 11.4935 12.057 11.4935 11.9131C11.4935 11.3855 9.17306 11.8112 9.17306 10.2463C9.17306 9.56868 9.66472 8.99908 10.6481 8.86119V8.20763H11.4935V8.8492C11.9372 8.89118 12.3689 9.00509 12.7107 9.197L12.2849 10.2223C11.8712 10.0124 11.4815 9.9105 11.1157 9.9105C10.702 9.9105 10.5701 10.0304 10.5701 10.1743C10.5701 10.678 12.8906 10.2583 12.8906 11.8052C12.8906 12.4528 12.4229 13.0164 11.4935 13.1783Z" fill="#171FE5"/>
<path d="M21.9354 9.80737L20.6531 9.94909C20.8929 12.1182 20.3795 14.3355 19.2074 16.1927C18.019 18.0756 16.1995 19.5028 14.084 20.2114C13.0713 20.5506 12.0309 20.7131 11.0005 20.713C8.02613 20.7128 5.13949 19.3579 3.27407 16.9897H4.55129V15.6997H1.10205V19.3078H2.39208V17.9491C3.6222 19.4469 5.25246 20.6148 7.10341 21.3038C8.35412 21.7694 9.67349 22.0028 10.9912 22.0028C12.1772 22.0028 13.3619 21.8137 14.4937 21.4346C16.8903 20.6319 18.9517 19.0148 20.2982 16.8813C21.6257 14.7779 22.2071 12.2657 21.9354 9.80737Z" fill="#171FE5"/>
<path d="M2.74792 5.89079C3.93615 3.97096 5.77176 2.51799 7.91658 1.7995C10.0053 1.09992 12.2025 1.12213 14.271 1.86396C15.8862 2.44327 17.3263 3.44897 18.4248 4.74827L17.1954 4.74785L17.195 6.03787L20.6825 6.03903V2.59225H19.3924V3.89529C18.1502 2.43373 16.5265 1.30239 14.7065 0.649644C12.3627 -0.190879 9.87306 -0.216274 7.50691 0.576295C5.07712 1.39018 2.99749 3.03646 1.65104 5.21183C0.322131 7.35892 -0.232518 9.91293 0.0892366 12.4034L1.36861 12.2381C1.08471 10.0407 1.57456 7.78655 2.74792 5.89079Z" fill="#171FE5"/>
</svg>
