<svg width="23" height="23" viewBox="0 0 23 23" fill="none" xmlns="http://www.w3.org/2000/svg">
<path d="M21.687 11.836L22.9 11.064L21.6502 10.4024L22.753 9.48346L21.3929 9.00562L22.3486 7.93965L20.9518 7.64558L21.7605 6.46934L20.327 6.35907L20.9518 5.07255L19.5183 5.18282L19.9594 3.82279L18.5626 4.11685L18.8199 2.72006L17.4599 3.19791L17.4966 1.76437L16.2469 2.426L16.0998 0.992456L14.9603 1.83788L14.5928 0.441092L13.5636 1.43355L13.0122 0.110273L12.13 1.24976L11.4316 0L10.7332 1.24976L9.85104 0.110273L9.29968 1.43355L8.27046 0.441092L7.93965 1.83788L6.80016 0.992456L6.65313 2.426L5.40337 1.76437L5.44013 3.19791L4.0801 2.72006L4.3374 4.11685L2.94061 3.82279L3.3817 5.18282L1.94815 5.07255L2.57303 6.35907L1.13949 6.46934L1.94815 7.64558L0.551364 7.93965L1.50706 9.00562L0.14703 9.48346L1.24976 10.4024L0 11.064L1.213 11.836L0.0367578 12.6814L1.36003 13.2695L0.330818 14.262L1.69085 14.6663L0.808668 15.8058L2.24221 15.9896L1.50706 17.2026H2.94061L2.38925 18.5258L3.82279 18.342L3.49197 19.7388L4.85201 19.3345L4.70498 20.7681L6.02825 20.1799L6.06501 21.6135L7.27801 20.8416L7.53531 22.2384L8.63804 21.3194L9.07913 22.6794L10.0348 21.6135L10.6597 22.9L11.4684 21.7238L12.277 22.9L12.9019 21.6135L13.8576 22.6794L14.2987 21.3194L15.4014 22.2384L15.6587 20.8416L16.8717 21.6135L16.9085 20.1799L18.2318 20.7681L18.0847 19.3345L19.4448 19.7388L19.114 18.342L20.5475 18.5258L19.9961 17.2026H21.3562L20.6578 15.9528L22.0913 15.769L21.2091 14.6295L22.5692 14.2252L21.54 13.2327L22.8632 12.6446L21.687 11.836ZM9.48347 6.94719C10.3656 6.94719 11.064 7.64558 11.064 8.52777C11.064 9.40995 10.3656 10.1083 9.48347 10.1083C8.60128 10.1083 7.90289 9.40995 7.90289 8.52777C7.90289 7.64558 8.60128 6.94719 9.48347 6.94719ZM8.96886 15.769C8.85859 15.916 8.6748 15.9896 8.49101 15.9896C8.38074 15.9896 8.23371 15.9528 8.12343 15.8793C7.86613 15.6955 7.79262 15.3279 8.01316 15.0706L13.8944 7.16774C14.0782 6.91043 14.4457 6.83692 14.703 7.05746C14.9604 7.24125 15.0339 7.60883 14.8133 7.86613L8.96886 15.769ZM13.3798 15.9896C12.4976 15.9896 11.7992 15.2912 11.7992 14.409C11.7992 13.5268 12.4976 12.8284 13.3798 12.8284C14.262 12.8284 14.9603 13.5268 14.9603 14.409C14.9603 15.2912 14.262 15.9896 13.3798 15.9896Z" fill="#171FE5"/>
</svg>
