<svg width="50" height="50" viewBox="0 0 50 50" fill="none" xmlns="http://www.w3.org/2000/svg">
<rect opacity="0.1" width="50" height="50" rx="10" fill="#171FE5"/>
<path d="M35.687 25.836L36.9 25.064L35.6502 24.4024L36.753 23.4835L35.3929 23.0056L36.3486 21.9396L34.9518 21.6456L35.7605 20.4693L34.327 20.3591L34.9518 19.0726L33.5183 19.1828L33.9594 17.8228L32.5626 18.1169L32.8199 16.7201L31.4599 17.1979L31.4966 15.7644L30.2469 16.426L30.0998 14.9925L28.9603 15.8379L28.5928 14.4411L27.5636 15.4335L27.0122 14.1103L26.13 15.2498L25.4316 14L24.7332 15.2498L23.851 14.1103L23.2997 15.4335L22.2705 14.4411L21.9396 15.8379L20.8002 14.9925L20.6531 16.426L19.4034 15.7644L19.4401 17.1979L18.0801 16.7201L18.3374 18.1169L16.9406 17.8228L17.3817 19.1828L15.9482 19.0726L16.573 20.3591L15.1395 20.4693L15.9482 21.6456L14.5514 21.9396L15.5071 23.0056L14.147 23.4835L15.2498 24.4024L14 25.064L15.213 25.836L14.0368 26.6814L15.36 27.2695L14.3308 28.262L15.6909 28.6663L14.8087 29.8058L16.2422 29.9896L15.5071 31.2026H16.9406L16.3892 32.5258L17.8228 32.342L17.492 33.7388L18.852 33.3345L18.705 34.7681L20.0282 34.1799L20.065 35.6135L21.278 34.8416L21.5353 36.2384L22.638 35.3194L23.0791 36.6794L24.0348 35.6135L24.6597 36.9L25.4684 35.7238L26.277 36.9L26.9019 35.6135L27.8576 36.6794L28.2987 35.3194L29.4014 36.2384L29.6587 34.8416L30.8717 35.6135L30.9085 34.1799L32.2318 34.7681L32.0847 33.3345L33.4448 33.7388L33.114 32.342L34.5475 32.5258L33.9961 31.2026H35.3562L34.6578 29.9528L36.0913 29.769L35.2091 28.6295L36.5692 28.2252L35.54 27.2327L36.8632 26.6446L35.687 25.836ZM23.4835 20.9472C24.3656 20.9472 25.064 21.6456 25.064 22.5278C25.064 23.41 24.3656 24.1083 23.4835 24.1083C22.6013 24.1083 21.9029 23.41 21.9029 22.5278C21.9029 21.6456 22.6013 20.9472 23.4835 20.9472ZM22.9689 29.769C22.8586 29.916 22.6748 29.9896 22.491 29.9896C22.3807 29.9896 22.2337 29.9528 22.1234 29.8793C21.8661 29.6955 21.7926 29.3279 22.0132 29.0706L27.8944 21.1677C28.0782 20.9104 28.4457 20.8369 28.703 21.0575C28.9604 21.2413 29.0339 21.6088 28.8133 21.8661L22.9689 29.769ZM27.3798 29.9896C26.4976 29.9896 25.7992 29.2912 25.7992 28.409C25.7992 27.5268 26.4976 26.8284 27.3798 26.8284C28.262 26.8284 28.9603 27.5268 28.9603 28.409C28.9603 29.2912 28.262 29.9896 27.3798 29.9896Z" fill="#171FE5"/>
</svg>
