<svg width="50" height="50" viewBox="0 0 50 50" fill="none" xmlns="http://www.w3.org/2000/svg">
<rect opacity="0.1" width="50" height="50" rx="10" fill="#171FE5"/>
<path d="M29.8006 22.2636L31.4657 22.0024C31.5061 21.9962 31.5436 21.9776 31.5728 21.949C31.602 21.9204 31.6216 21.8834 31.6286 21.8432C31.7534 21.1011 31.7534 20.3434 31.6286 19.6013C31.6216 19.561 31.602 19.524 31.5728 19.4955C31.5436 19.4669 31.5061 19.4482 31.4657 19.442L29.8006 19.1809C29.7186 19.168 29.6413 19.1343 29.5761 19.0829C29.5109 19.0316 29.46 18.9644 29.4282 18.8877C29.3965 18.811 29.385 18.7274 29.3948 18.645C29.4047 18.5626 29.4355 18.4841 29.4844 18.4171L30.4771 17.0564C30.5013 17.0234 30.5146 16.9837 30.515 16.9428C30.5155 16.9019 30.5031 16.8618 30.4797 16.8283C30.0436 16.2147 29.5075 15.6786 28.8939 15.2426C28.8604 15.2191 28.8204 15.2068 28.7795 15.2072C28.7386 15.2077 28.6988 15.2209 28.6658 15.2451L27.3052 16.2378C27.2381 16.2867 27.1596 16.3176 27.0772 16.3274C26.9948 16.3373 26.9112 16.3258 26.8346 16.294C26.7579 16.2623 26.6906 16.2114 26.6393 16.1461C26.5879 16.0809 26.5542 16.0036 26.5414 15.9216L26.2802 14.2565C26.274 14.2161 26.2554 14.1786 26.2268 14.1494C26.1982 14.1202 26.1612 14.1007 26.1209 14.0936C25.3789 13.9688 24.6212 13.9688 23.8791 14.0936C23.8388 14.1007 23.8018 14.1202 23.7732 14.1494C23.7447 14.1786 23.726 14.2161 23.7198 14.2565L23.4587 15.9216C23.4458 16.0036 23.4121 16.0809 23.3607 16.1461C23.3094 16.2114 23.2422 16.2623 23.1655 16.294C23.0888 16.3258 23.0052 16.3373 22.9228 16.3274C22.8404 16.3176 22.7619 16.2867 22.6949 16.2378L21.3342 15.2451C21.3012 15.2209 21.2615 15.2077 21.2206 15.2072C21.1797 15.2068 21.1396 15.2191 21.1061 15.2426C20.4925 15.6786 19.9564 16.2147 19.5204 16.8283C19.4969 16.8618 19.4846 16.9019 19.485 16.9428C19.4855 16.9837 19.4987 17.0234 19.5229 17.0564L20.5156 18.4171C20.5645 18.4841 20.5954 18.5626 20.6052 18.645C20.6151 18.7274 20.6036 18.811 20.5718 18.8877C20.5401 18.9644 20.4891 19.0316 20.4239 19.0829C20.3587 19.1343 20.2814 19.168 20.1994 19.1809L18.5343 19.442C18.4939 19.4482 18.4564 19.4669 18.4272 19.4955C18.398 19.524 18.3785 19.561 18.3714 19.6013C18.2466 20.3434 18.2466 21.1011 18.3714 21.8432C18.3785 21.8834 18.398 21.9204 18.4272 21.949C18.4564 21.9776 18.4939 21.9962 18.5343 22.0024L20.1994 22.2636C20.2814 22.2764 20.3587 22.3102 20.4239 22.3615C20.4891 22.4128 20.5401 22.4801 20.5718 22.5568C20.6036 22.6334 20.6151 22.717 20.6052 22.7994C20.5954 22.8818 20.5645 22.9603 20.5156 23.0274L19.5229 24.388C19.4987 24.421 19.4855 24.4608 19.485 24.5017C19.4846 24.5426 19.4969 24.5826 19.5204 24.6161C19.9565 25.2298 20.4925 25.7658 21.1061 26.2019C21.1396 26.2253 21.1797 26.2377 21.2206 26.2372C21.2615 26.2368 21.3012 26.2235 21.3342 26.1993L22.6949 25.2066C22.7619 25.1577 22.8404 25.1269 22.9228 25.117C23.0052 25.1072 23.0888 25.1187 23.1655 25.1504C23.2422 25.1822 23.3094 25.2331 23.3607 25.2983C23.4121 25.3635 23.4458 25.4408 23.4587 25.5228L23.7198 27.188C23.726 27.2284 23.7447 27.2658 23.7732 27.295C23.8018 27.3243 23.8388 27.3438 23.8791 27.3509C24.6212 27.4756 25.3789 27.4756 26.1209 27.3509C26.1612 27.3438 26.1982 27.3243 26.2268 27.295C26.2554 27.2658 26.274 27.2284 26.2802 27.188L26.5414 25.5228C26.5542 25.4408 26.588 25.3635 26.6393 25.2983C26.6906 25.2331 26.7579 25.1822 26.8346 25.1504C26.9112 25.1187 26.9948 25.1072 27.0772 25.117C27.1596 25.1269 27.2381 25.1577 27.3052 25.2067L28.6658 26.1993C28.6988 26.2235 28.7386 26.2368 28.7795 26.2372C28.8204 26.2377 28.8604 26.2253 28.8939 26.2019C29.5076 25.7658 30.0436 25.2298 30.4797 24.6161C30.5031 24.5826 30.5155 24.5426 30.515 24.5017C30.5146 24.4608 30.5013 24.421 30.4771 24.388L29.4844 23.0274C29.4355 22.9603 29.4047 22.8818 29.3948 22.7994C29.385 22.717 29.3965 22.6334 29.4282 22.5568C29.46 22.4801 29.5109 22.4128 29.5761 22.3615C29.6413 22.3102 29.7186 22.2764 29.8006 22.2636ZM25 23.3364C24.483 23.3364 23.9775 23.1831 23.5476 22.8959C23.1177 22.6086 22.7827 22.2003 22.5848 21.7226C22.3869 21.245 22.3352 20.7193 22.436 20.2122C22.5369 19.7051 22.7859 19.2393 23.1515 18.8737C23.5171 18.5081 23.9829 18.2591 24.49 18.1583C24.9971 18.0574 25.5227 18.1092 26.0004 18.307C26.4781 18.5049 26.8864 18.8399 27.1736 19.2698C27.4609 19.6998 27.6142 20.2052 27.6142 20.7222C27.6142 21.4156 27.3388 22.0805 26.8485 22.5707C26.3583 23.061 25.6933 23.3364 25 23.3364ZM35.9804 30.0774C35.7357 30.29 35.4771 30.4861 35.2064 30.6644C35.2048 30.9561 33.5166 32.1261 33.2661 32.3163C32.4336 32.9605 31.5578 33.5467 30.6449 34.0708C28.8738 34.888 27.0081 35.4821 25.0905 35.8394C24.306 35.9588 20.6966 35.6322 18.4649 35.1853C17.8138 35.096 17.1539 35.0915 16.5017 35.1719V30.1727C16.5017 30.1616 16.4989 30.1514 16.4987 30.1404C17.1157 29.6876 17.8158 29.3609 18.5591 29.1787C19.7032 28.9714 20.8757 28.976 22.0182 29.1923C22.9461 29.3465 23.8926 29.3521 24.8223 29.2087C25.589 29.1299 26.3496 28.9994 27.0988 28.8181C27.8822 28.5633 28.3832 28.5984 28.6695 29.1124C28.9092 29.5416 28.6768 29.913 28.3361 30.1809C27.7643 30.6211 27.1256 30.9667 26.4443 31.2046C25.688 31.4897 23.5353 31.8206 23.4004 31.8399C24.047 32.0364 24.7031 32.2001 25.3661 32.3304C26.75 32.4554 28.1447 32.3826 29.508 32.1141C30.9688 31.7658 33.1584 29.8738 34.0788 29.5406C34.6385 29.3413 35.141 29.1701 35.6185 29.416C35.8418 29.5313 36.069 29.9616 35.9804 30.0774ZM15.2452 36H14.2768C14.2034 36 14.133 35.9708 14.0811 35.9189C14.0292 35.867 14 35.7966 14 35.7232V29.9743C14 29.9009 14.0292 29.8305 14.0811 29.7786C14.133 29.7267 14.2034 29.6975 14.2768 29.6975H15.2452C15.3186 29.6975 15.389 29.7267 15.441 29.7786C15.4929 29.8305 15.522 29.9009 15.522 29.9743V35.7232C15.522 35.7966 15.4929 35.867 15.441 35.9189C15.389 35.9708 15.3186 36 15.2452 36Z" fill="#171FE5"/>
</svg>
