<svg width="22" height="22" viewBox="0 0 22 22" fill="none" xmlns="http://www.w3.org/2000/svg">
<path d="M15.8006 8.26358L17.4657 8.00241C17.5061 7.99625 17.5436 7.97757 17.5728 7.94899C17.602 7.92042 17.6216 7.8834 17.6286 7.84315C17.7534 7.10108 17.7534 6.34337 17.6286 5.60129C17.6216 5.56104 17.602 5.52402 17.5728 5.49545C17.5436 5.46688 17.5061 5.4482 17.4657 5.44203L15.8006 5.18087C15.7186 5.16801 15.6413 5.13429 15.5761 5.08295C15.5109 5.03161 15.46 4.96437 15.4282 4.88768C15.3965 4.811 15.385 4.72744 15.3948 4.64503C15.4047 4.56262 15.4355 4.48412 15.4844 4.41707L16.4771 3.0564C16.5013 3.02341 16.5146 2.98367 16.515 2.94276C16.5155 2.90186 16.5031 2.86183 16.4797 2.8283C16.0436 2.21468 15.5075 1.67865 14.8939 1.24256C14.8604 1.21912 14.8204 1.20676 14.7795 1.20722C14.7386 1.20768 14.6988 1.22093 14.6658 1.24512L13.3052 2.2378C13.2381 2.28671 13.1596 2.31757 13.0772 2.32742C12.9948 2.33726 12.9112 2.32576 12.8346 2.29402C12.7579 2.26228 12.6906 2.21135 12.6393 2.14614C12.5879 2.08093 12.5542 2.00362 12.5414 1.92163L12.2802 0.256493C12.274 0.21609 12.2554 0.178639 12.2268 0.149414C12.1982 0.120189 12.1612 0.100663 12.1209 0.0935856C11.3789 -0.0311952 10.6212 -0.0311952 9.87909 0.0935856C9.83884 0.100663 9.80182 0.120189 9.77324 0.149414C9.74467 0.178639 9.72599 0.21609 9.71982 0.256493L9.45866 1.92163C9.4458 2.00362 9.41208 2.08093 9.36074 2.14614C9.3094 2.21135 9.24216 2.26228 9.16547 2.29402C9.08879 2.32576 9.00523 2.33726 8.92282 2.32742C8.84041 2.31757 8.76192 2.28671 8.69487 2.2378L7.33421 1.24512C7.30122 1.22093 7.26148 1.20768 7.22057 1.20722C7.17966 1.20676 7.13964 1.21912 7.10611 1.24256C6.49248 1.67865 5.95645 2.21468 5.52035 2.8283C5.49691 2.86183 5.48455 2.90186 5.48501 2.94276C5.48547 2.98367 5.49873 3.02341 5.52291 3.0564L6.51559 4.41707C6.5645 4.48412 6.59536 4.56261 6.60521 4.64502C6.61506 4.72744 6.60356 4.81099 6.57181 4.88768C6.54007 4.96437 6.48915 5.03161 6.42393 5.08295C6.35872 5.13429 6.28141 5.16801 6.19941 5.18087L4.5343 5.44203C4.49389 5.4482 4.45644 5.46688 4.42722 5.49545C4.39799 5.52402 4.37847 5.56104 4.37139 5.60129C4.2466 6.34337 4.2466 7.10108 4.37139 7.84315C4.37847 7.8834 4.39799 7.92042 4.42722 7.94899C4.45644 7.97757 4.49389 7.99625 4.5343 8.00241L6.19941 8.26358C6.28141 8.27643 6.35872 8.31015 6.42393 8.3615C6.48915 8.41284 6.54007 8.48008 6.57181 8.55676C6.60356 8.63345 6.61506 8.71701 6.60521 8.79942C6.59536 8.88183 6.5645 8.96033 6.51559 9.02738L5.52292 10.388C5.49873 10.421 5.48548 10.4608 5.48502 10.5017C5.48456 10.5426 5.49692 10.5826 5.52036 10.6161C5.95645 11.2298 6.49249 11.7658 7.10611 12.2019C7.13964 12.2253 7.17967 12.2377 7.22058 12.2372C7.26148 12.2368 7.30122 12.2235 7.33422 12.1993L8.69487 11.2066C8.76192 11.1577 8.84042 11.1269 8.92283 11.117C9.00524 11.1072 9.08879 11.1187 9.16548 11.1504C9.24216 11.1822 9.3094 11.2331 9.36074 11.2983C9.41209 11.3635 9.4458 11.4408 9.45866 11.5228L9.71983 13.188C9.72599 13.2284 9.74468 13.2658 9.77325 13.295C9.80182 13.3243 9.83884 13.3438 9.87909 13.3509C10.6212 13.4756 11.3789 13.4756 12.1209 13.3509C12.1612 13.3438 12.1982 13.3243 12.2268 13.295C12.2554 13.2658 12.274 13.2284 12.2802 13.188L12.5414 11.5228C12.5542 11.4408 12.588 11.3635 12.6393 11.2983C12.6906 11.2331 12.7579 11.1822 12.8346 11.1504C12.9112 11.1187 12.9948 11.1072 13.0772 11.117C13.1596 11.1269 13.2381 11.1577 13.3052 11.2067L14.6658 12.1993C14.6988 12.2235 14.7386 12.2368 14.7795 12.2372C14.8204 12.2377 14.8604 12.2253 14.8939 12.2019C15.5076 11.7658 16.0436 11.2298 16.4797 10.6161C16.5031 10.5826 16.5155 10.5426 16.515 10.5017C16.5146 10.4608 16.5013 10.421 16.4771 10.388L15.4844 9.02738C15.4355 8.96033 15.4047 8.88183 15.3948 8.79942C15.385 8.71701 15.3965 8.63345 15.4282 8.55676C15.46 8.48008 15.5109 8.41284 15.5761 8.3615C15.6413 8.31015 15.7186 8.27643 15.8006 8.26358V8.26358ZM11 9.33642C10.483 9.33642 9.97755 9.1831 9.54764 8.89585C9.11774 8.6086 8.78267 8.20032 8.58481 7.72264C8.38695 7.24495 8.33517 6.71932 8.43604 6.21222C8.53691 5.70511 8.78589 5.23931 9.15149 4.8737C9.5171 4.5081 9.9829 4.25912 10.49 4.15825C10.9971 4.05738 11.5227 4.10915 12.0004 4.30701C12.4781 4.50488 12.8864 4.83995 13.1736 5.26985C13.4609 5.69975 13.6142 6.20518 13.6142 6.72222C13.6142 7.41555 13.3388 8.08048 12.8485 8.57074C12.3583 9.061 11.6933 9.33642 11 9.33642V9.33642ZM21.9804 16.0774C21.7357 16.29 21.4771 16.4861 21.2064 16.6644C21.2048 16.9561 19.5166 18.1261 19.2661 18.3163C18.4336 18.9605 17.5578 19.5467 16.6449 20.0708C14.8738 20.888 13.0081 21.4821 11.0905 21.8394C10.306 21.9588 6.69661 21.6322 4.46489 21.1853C3.81383 21.096 3.15395 21.0915 2.50174 21.1719V16.1727C2.50174 16.1616 2.49893 16.1514 2.49866 16.1404C3.11568 15.6876 3.81581 15.3609 4.55909 15.1787C5.70323 14.9714 6.87573 14.976 8.0182 15.1923C8.9461 15.3465 9.89263 15.3521 10.8223 15.2087C11.589 15.1299 12.3496 14.9994 13.0988 14.8181C13.8822 14.5633 14.3832 14.5984 14.6695 15.1124C14.9092 15.5416 14.6768 15.913 14.3361 16.1809C13.7643 16.6211 13.1256 16.9667 12.4443 17.2046C11.688 17.4897 9.53532 17.8206 9.40043 17.8399C10.047 18.0364 10.7031 18.2001 11.3661 18.3304C12.75 18.4554 14.1447 18.3826 15.508 18.1141C16.9688 17.7658 19.1584 15.8738 20.0788 15.5406C20.6385 15.3413 21.141 15.1701 21.6185 15.416C21.8418 15.5313 22.069 15.9616 21.9804 16.0774ZM1.24521 22H0.276821C0.203404 22 0.132994 21.9708 0.0810797 21.9189C0.0291658 21.867 6.48297e-07 21.7966 0 21.7232V15.9743C6.48297e-07 15.9009 0.0291658 15.8305 0.0810797 15.7786C0.132994 15.7267 0.203404 15.6975 0.276821 15.6975H1.24521C1.31863 15.6975 1.38904 15.7267 1.44096 15.7786C1.49287 15.8305 1.52204 15.9009 1.52204 15.9743V21.7232C1.52204 21.7966 1.49287 21.867 1.44096 21.9189C1.38904 21.9708 1.31863 22 1.24521 22Z" fill="#171FE5"/>
</svg>
