<svg width="141" height="36" viewBox="0 0 141 36" fill="none" xmlns="http://www.w3.org/2000/svg">
<path d="M53.8237 14.9229L58.4556 6.96094H62.8755L56.2153 17.8896L63.0269 29H58.5615L53.8237 20.917L49.0708 29H44.6206L51.4473 17.8896L44.772 6.96094H49.1919L53.8237 14.9229ZM79.8438 20.9775C79.8438 23.5104 79.2686 25.5337 78.1182 27.0474C76.9678 28.5509 75.4238 29.3027 73.4863 29.3027C71.6901 29.3027 70.2521 28.7124 69.1724 27.5317V35.2969H65.4941V12.6221H68.8848L69.0361 14.2871C70.1159 12.9753 71.5841 12.3193 73.4409 12.3193C75.439 12.3193 77.0031 13.0661 78.1333 14.5596C79.2736 16.043 79.8438 18.1066 79.8438 20.7505V20.9775ZM76.1807 20.6597C76.1807 19.0249 75.8527 17.7282 75.1968 16.7695C74.5509 15.8109 73.6226 15.3315 72.4116 15.3315C70.908 15.3315 69.8283 15.9521 69.1724 17.1934V24.459C69.8384 25.7305 70.9282 26.3662 72.4419 26.3662C73.6125 26.3662 74.5257 25.897 75.1816 24.9585C75.8477 24.0099 76.1807 22.577 76.1807 20.6597ZM91.5444 15.9824C91.0601 15.9017 90.5605 15.8613 90.0459 15.8613C88.3607 15.8613 87.2254 16.5072 86.6401 17.7988V29H82.9619V12.6221H86.4736L86.5645 14.4536C87.4525 13.0308 88.6836 12.3193 90.2578 12.3193C90.7826 12.3193 91.2165 12.39 91.5596 12.5312L91.5444 15.9824ZM100.778 29.3027C98.4468 29.3027 96.5547 28.5711 95.1016 27.1079C93.6585 25.6346 92.937 23.6769 92.937 21.2349V20.7808C92.937 19.146 93.2498 17.6878 93.8755 16.4062C94.5112 15.1146 95.3993 14.1105 96.5396 13.394C97.6799 12.6776 98.9513 12.3193 100.354 12.3193C102.584 12.3193 104.305 13.0308 105.516 14.4536C106.737 15.8765 107.347 17.8896 107.347 20.4932V21.9766H96.6455C96.7565 23.3288 97.2056 24.3984 97.9927 25.1855C98.7899 25.9727 99.7889 26.3662 100.99 26.3662C102.675 26.3662 104.047 25.6851 105.107 24.3228L107.09 26.2148C106.434 27.1937 105.556 27.9556 104.456 28.5005C103.366 29.0353 102.14 29.3027 100.778 29.3027ZM100.339 15.271C99.3298 15.271 98.5124 15.6242 97.8867 16.3306C97.2712 17.0369 96.8776 18.0208 96.7061 19.2822H103.714V19.0098C103.634 17.7786 103.306 16.8503 102.73 16.2246C102.155 15.5889 101.358 15.271 100.339 15.271ZM119.396 24.5498C119.396 23.8939 119.124 23.3944 118.579 23.0513C118.044 22.7082 117.151 22.4054 115.899 22.1431C114.648 21.8807 113.604 21.5477 112.766 21.144C110.93 20.256 110.011 18.9694 110.011 17.2842C110.011 15.8714 110.607 14.6908 111.797 13.7422C112.988 12.7936 114.502 12.3193 116.338 12.3193C118.296 12.3193 119.875 12.8037 121.076 13.7725C122.287 14.7412 122.893 15.9976 122.893 17.5415H119.214C119.214 16.8351 118.952 16.2498 118.427 15.7856C117.903 15.3114 117.206 15.0742 116.338 15.0742C115.531 15.0742 114.87 15.2609 114.355 15.6343C113.851 16.0076 113.599 16.5072 113.599 17.1328C113.599 17.6979 113.836 18.1369 114.31 18.4497C114.784 18.7625 115.743 19.0804 117.186 19.4033C118.629 19.7161 119.759 20.0946 120.577 20.5386C121.404 20.9725 122.015 21.4972 122.408 22.1128C122.812 22.7284 123.014 23.4751 123.014 24.353C123.014 25.8263 122.403 27.0221 121.182 27.9404C119.961 28.8486 118.362 29.3027 116.384 29.3027C115.042 29.3027 113.846 29.0605 112.796 28.5762C111.747 28.0918 110.93 27.4258 110.344 26.5781C109.759 25.7305 109.466 24.8172 109.466 23.8384H113.039C113.089 24.7062 113.417 25.3773 114.022 25.8516C114.628 26.3158 115.43 26.5479 116.429 26.5479C117.398 26.5479 118.135 26.3662 118.639 26.0029C119.144 25.6296 119.396 25.1452 119.396 24.5498ZM135.411 24.5498C135.411 23.8939 135.138 23.3944 134.593 23.0513C134.058 22.7082 133.165 22.4054 131.914 22.1431C130.663 21.8807 129.618 21.5477 128.781 21.144C126.944 20.256 126.026 18.9694 126.026 17.2842C126.026 15.8714 126.621 14.6908 127.812 13.7422C129.003 12.7936 130.516 12.3193 132.353 12.3193C134.311 12.3193 135.89 12.8037 137.091 13.7725C138.302 14.7412 138.907 15.9976 138.907 17.5415H135.229C135.229 16.8351 134.967 16.2498 134.442 15.7856C133.917 15.3114 133.221 15.0742 132.353 15.0742C131.546 15.0742 130.885 15.2609 130.37 15.6343C129.866 16.0076 129.613 16.5072 129.613 17.1328C129.613 17.6979 129.85 18.1369 130.325 18.4497C130.799 18.7625 131.758 19.0804 133.201 19.4033C134.644 19.7161 135.774 20.0946 136.591 20.5386C137.419 20.9725 138.029 21.4972 138.423 22.1128C138.826 22.7284 139.028 23.4751 139.028 24.353C139.028 25.8263 138.418 27.0221 137.197 27.9404C135.976 28.8486 134.376 29.3027 132.398 29.3027C131.056 29.3027 129.861 29.0605 128.811 28.5762C127.762 28.0918 126.944 27.4258 126.359 26.5781C125.774 25.7305 125.481 24.8172 125.481 23.8384H129.053C129.104 24.7062 129.432 25.3773 130.037 25.8516C130.643 26.3158 131.445 26.5479 132.444 26.5479C133.413 26.5479 134.149 26.3662 134.654 26.0029C135.158 25.6296 135.411 25.1452 135.411 24.5498Z" fill="white"/>
<g clip-path="url(#clip0_1:162)">
<path d="M20.4994 27.4373C18.7958 27.4373 17.3951 28.7536 17.2247 30.4133V30.4323C17.2247 30.5277 17.2058 30.6231 17.2058 30.7185C17.2247 32.5308 18.7012 33.9997 20.4994 33.9997C22.3166 33.9997 23.7741 32.5308 23.7931 30.7185C23.7741 28.9062 22.3166 27.4373 20.4994 27.4373Z" fill="white"/>
<path d="M35.0375 27.4373C33.8261 27.4373 32.766 28.1049 32.1982 29.0779C31.9332 29.5548 31.7817 30.108 31.7817 30.6803C31.7817 32.5117 33.2582 33.9997 35.0754 33.9997C36.2111 33.9997 37.2143 33.4274 37.8011 32.5308C38.1229 32.0157 38.3311 31.4053 38.3311 30.7376C38.3501 28.9253 36.8736 27.4373 35.0375 27.4373Z" fill="white"/>
<path d="M20.5004 28.0479C19.4971 28.0479 18.6264 28.6011 18.1721 29.4214C18.5696 29.1925 19.0239 29.0589 19.5161 29.0589C20.9736 29.0589 22.185 30.2608 22.204 31.7297C22.204 32.2066 22.0715 32.6454 21.8443 33.0269C22.6393 32.5691 23.1883 31.7106 23.1883 30.7186C23.1693 29.2497 21.9579 28.0479 20.5004 28.0479Z" fill="white"/>
<path d="M35.0375 28.0479C34.091 28.0479 33.2014 28.5629 32.7282 29.3642C32.7282 29.3832 32.7092 29.3832 32.7092 29.4023C33.1067 29.1734 33.561 29.0399 34.0343 29.0399C35.5107 29.0399 36.7222 30.2608 36.7222 31.7488C36.7222 32.1875 36.6086 32.6263 36.4004 33.0269C36.76 32.8171 37.0629 32.55 37.3089 32.2066C37.5929 31.7679 37.7254 31.2719 37.7254 30.7568C37.7254 29.2688 36.5329 28.0479 35.0375 28.0479Z" fill="white"/>
<path d="M38.3878 23.7936H19.7996L14.6888 9.54313C14.3102 8.4939 13.3259 7.80713 12.2281 7.80713H2.61219C1.17359 7.80713 0 8.97082 0 10.4397C0 11.9087 1.17359 13.0724 2.61219 13.0724H10.4109L15.5217 27.3228C15.711 27.857 16.0706 28.2957 16.5249 28.601C17.2821 27.1702 18.7964 26.1973 20.5189 26.1973C22.4118 26.1973 24.0397 27.3801 24.7211 29.0588H30.873C31.5355 27.3801 33.1634 26.1973 35.0752 26.1973C36.9303 26.1973 38.5203 27.3228 39.2207 28.9253C40.2618 28.5819 41.0379 27.5899 41.0379 26.4262C41 24.9764 39.8264 23.7936 38.3878 23.7936Z" fill="white"/>
<path d="M38.3881 21.2565C38.3881 21.2565 38.2556 21.3328 38.0095 21.4473C37.7635 21.5617 37.3849 21.7334 36.8927 21.9051C36.6467 22.0005 36.3627 22.0768 36.0599 22.1722C35.757 22.2485 35.4163 22.3439 35.0566 22.4011C34.3373 22.5537 33.4855 22.63 32.558 22.611C31.6305 22.5919 30.5894 22.4583 29.5294 22.1531C28.4694 21.8479 27.3904 21.371 26.3683 20.7223C25.3461 20.0928 24.3807 19.3106 23.5289 18.4331C22.6582 17.5747 21.8821 16.6208 21.1628 15.667C20.4435 14.694 19.7999 13.7211 19.1942 12.7482C18.8914 12.2713 18.5885 11.7943 18.3235 11.3174C18.0396 10.8596 17.7556 10.4017 17.4906 9.94388C16.9417 9.06634 16.4117 8.22696 15.8627 7.50203C15.3327 6.75803 14.7838 6.12849 14.2159 5.61342C13.648 5.09834 13.0802 4.69773 12.5123 4.41157C11.9444 4.12542 11.3955 3.95373 10.9223 3.83926C10.4491 3.74388 10.0516 3.66757 9.78655 3.64849C9.52155 3.62942 9.37012 3.61034 9.37012 3.61034C9.37012 3.61034 9.50262 3.55311 9.76762 3.43865C10.0326 3.34326 10.4112 3.19065 10.9412 3.09526C11.4712 2.99988 12.1337 2.94265 12.9098 3.03803C13.6859 3.11434 14.5566 3.38142 15.4274 3.82019C16.2981 4.25896 17.1499 4.88849 17.926 5.61342C18.721 6.33834 19.4592 7.15865 20.1596 8.03619C20.5192 8.47496 20.86 8.91373 21.1818 9.37157C21.5225 9.82942 21.8443 10.2682 22.185 10.7451C22.8475 11.6608 23.4911 12.5765 24.1347 13.454C24.7782 14.3316 25.4408 15.19 26.1222 15.9531C26.4629 16.3347 26.8226 16.7162 27.1633 17.0596C27.5229 17.403 27.8826 17.7273 28.2422 18.0325C28.9805 18.643 29.7376 19.139 30.5137 19.5396C31.2898 19.9402 32.0848 20.2454 32.842 20.4743C33.5991 20.7033 34.3373 20.8559 34.9998 20.9513C35.3406 21.0085 35.6434 21.0276 35.9463 21.0848C36.2492 21.1039 36.5142 21.142 36.7602 21.1611C37.0063 21.1802 37.2335 21.1993 37.4227 21.2183C37.612 21.2374 37.7824 21.2374 37.9338 21.2374C38.2367 21.2565 38.3881 21.2565 38.3881 21.2565Z" fill="white"/>
<path d="M35.5301 21.6571C35.3408 21.638 35.1326 21.6189 34.9433 21.5808C34.2051 21.4854 33.4479 21.3137 32.6908 21.0848C31.8201 20.8368 31.0061 20.4934 30.249 20.1119C29.3972 19.654 28.6021 19.1199 27.8639 18.5285C27.5232 18.2614 27.1825 17.9371 26.7282 17.5174C26.3685 17.1549 26.0089 16.7734 25.6682 16.4109L25.6492 16.3919C25.0246 15.686 24.381 14.8657 23.6238 13.8356C23.1885 13.2442 22.772 12.6528 22.3367 12.0423C22.1095 11.7371 21.9013 11.4128 21.6742 11.1076C21.3145 10.6115 20.9927 10.1537 20.6899 9.75309L20.6141 9.6577C20.2924 9.23801 19.9895 8.8374 19.6677 8.43678C18.9105 7.50201 18.2102 6.73893 17.4909 6.09032C16.7148 5.38447 15.9198 4.81216 15.1248 4.39247C14.3487 3.99186 13.5537 3.74386 12.8154 3.66755C12.6072 3.64847 12.4179 3.62939 12.2097 3.62939C12.399 3.7057 12.5883 3.78201 12.7776 3.87739C13.4022 4.18263 14.0269 4.62139 14.6326 5.17463C14.6894 5.21278 14.7273 5.27001 14.784 5.32724C15.0869 5.55616 15.3898 5.80416 15.6926 6.09032C16.393 6.73893 17.1123 7.50201 17.8695 8.43678C18.1912 8.8374 18.4941 9.23801 18.8159 9.6577L18.8916 9.75309C19.1945 10.1537 19.5163 10.5925 19.8759 11.1076C20.1031 11.4319 20.3302 11.7371 20.5384 12.0423C20.9738 12.6528 21.3902 13.2442 21.8256 13.8356C22.5828 14.8657 23.2263 15.6669 23.851 16.3919L23.8699 16.4109C24.2106 16.7734 24.5703 17.174 24.9299 17.5174C25.3842 17.9371 25.725 18.2614 26.0657 18.5285C26.785 19.1199 27.5989 19.654 28.4507 20.1119C29.2079 20.5125 30.0218 20.8368 30.8925 21.0848C31.6497 21.3137 32.4069 21.4854 33.1451 21.5808C33.3344 21.6189 33.5237 21.638 33.7319 21.6571C33.5426 21.6952 33.3533 21.7525 33.164 21.7906C32.7476 21.8669 32.3311 21.9242 31.8768 21.9623C32.104 21.9814 32.3311 22.0005 32.5583 22.0005H32.7476C33.5237 22.0005 34.2619 21.9242 34.9433 21.7906C35.1515 21.7525 35.3408 21.6952 35.5301 21.6571Z" fill="white"/>
<path d="M38.388 23.986H19.3645L14.1212 9.3349C13.8373 8.53367 13.0801 7.99951 12.2472 7.99951H2.61242C1.51454 7.99951 0.605957 8.89613 0.605957 10.0217C0.605957 10.2697 0.643815 10.4986 0.738459 10.7275C1.07918 10.4414 1.51454 10.2887 1.98777 10.2887H11.6036C12.4365 10.2887 13.1937 10.8229 13.4776 11.6241L18.6831 26.1798C19.232 25.9318 19.8377 25.7983 20.4624 25.7983C21.2006 25.7983 21.882 25.97 22.4878 26.2943H32.9744C33.5801 25.989 34.2805 25.7983 34.9998 25.7983C35.738 25.7983 36.4194 25.97 37.0252 26.2943H37.7255C38.5773 26.2943 39.3156 26.8475 39.5995 27.5915C40.0538 27.229 40.3377 26.6567 40.3377 26.0272C40.3945 24.9017 39.4859 23.986 38.388 23.986Z" fill="white"/>
</g>
<defs>
<clipPath id="clip0_1:162">
<rect width="41" height="31" fill="white" transform="translate(0 3)"/>
</clipPath>
</defs>
</svg>
